HIERARCHY
ROOT Hips
{
	OFFSET 54.304001 -34.501415 93.892494
	CHANNELS 6 Xposition Yposition Zposition Xrotation Yrotation Zrotation
	JOINT spine
	{
		OFFSET 0.000000 -0.448574 7.800591
		CHANNELS 3 Xrotation Yrotation Zrotation
		JOINT spine1
		{
			OFFSET 0.000000 -0.000004 10.136398
			CHANNELS 3 Xrotation Yrotation Zrotation
			JOINT spine2
			{
				OFFSET 0.000000 0.000000 9.712509
				CHANNELS 3 Xrotation Yrotation Zrotation
				JOINT Neck
				{
					OFFSET 0.000000 -1.188873 24.936111
					CHANNELS 3 Xrotation Yrotation Zrotation
					JOINT Head
					{
						OFFSET 0.000000 -0.000004 7.533844
						CHANNELS 3 Xrotation Yrotation Zrotation
						End Site
						{
							OFFSET 0.000000 6.014017 18.236099
						}
					}
				}
				JOINT RightShoulder
				{
					OFFSET -4.089649 0.569454 10.488800
					CHANNELS 3 Xrotation Yrotation Zrotation
					JOINT RightArm
					{
						OFFSET 0.000000 0.000000 13.757004
						CHANNELS 3 Xrotation Yrotation Zrotation
						JOINT RightArmRoll
						{
							OFFSET 0.000000 -0.000004 6.944778
							CHANNELS 3 Xrotation Yrotation Zrotation
							JOINT RightForeArm
							{
								OFFSET 0.000000 0.000000 20.227692
								CHANNELS 3 Xrotation Yrotation Zrotation
								JOINT RightForeArmRoll
								{
									OFFSET 0.000000 -0.000004 7.793121
									CHANNELS 3 Xrotation Yrotation Zrotation
									JOINT RightHand
									{
										OFFSET 0.000000 0.000000 15.639099
										CHANNELS 3 Xrotation Yrotation Zrotation
										End Site
										{
											OFFSET 0.000000 0.000000 0.100006
										}
									}
								}
							}
						}
					}
				}
				JOINT LeftShoulder
				{
					OFFSET 4.089649 0.569454 10.488800
					CHANNELS 3 Xrotation Yrotation Zrotation
					JOINT LeftArm
					{
						OFFSET 0.000000 0.000000 13.757004
						CHANNELS 3 Xrotation Yrotation Zrotation
						JOINT LeftArmRoll
						{
							OFFSET 0.000000 -0.000004 6.944778
							CHANNELS 3 Xrotation Yrotation Zrotation
							JOINT LeftForeArm
							{
								OFFSET 0.000000 0.000000 20.227692
								CHANNELS 3 Xrotation Yrotation Zrotation
								JOINT LeftForeArmRoll
								{
									OFFSET 0.000000 -0.000004 7.793121
									CHANNELS 3 Xrotation Yrotation Zrotation
									JOINT LeftHand
									{
										OFFSET 0.000000 0.000000 15.639099
										CHANNELS 3 Xrotation Yrotation Zrotation
										End Site
										{
											OFFSET 0.000000 0.000000 0.100006
										}
									}
								}
							}
						}
					}
				}
			}
		}
	}
	JOINT RightUpLeg
	{
		OFFSET -6.914162 1.063580 -1.267883
		CHANNELS 3 Xrotation Yrotation Zrotation
		JOINT RightUpLegRoll
		{
			OFFSET 0.000000 -0.000004 18.337799
			CHANNELS 3 Xrotation Yrotation Zrotation
			JOINT RightLeg
			{
				OFFSET 0.000000 0.000004 -22.708496
				CHANNELS 3 Xrotation Yrotation Zrotation
				JOINT RightLegRoll
				{
					OFFSET 0.000000 -0.000004 22.782799
					CHANNELS 3 Xrotation Yrotation Zrotation
					JOINT RightFoot
					{
						OFFSET 0.000000 -0.000004 18.962906
						CHANNELS 3 Xrotation Yrotation Zrotation
						JOINT RightToeBase
						{
							OFFSET 0.000000 0.000000 15.852005
							CHANNELS 3 Xrotation Yrotation Zrotation
							End Site
							{
								OFFSET 0.006718 0.884888 7.677002
							}
						}
					}
				}
			}
		}
	}
	JOINT LeftUpLeg
	{
		OFFSET 6.914162 1.063580 -1.267883
		CHANNELS 3 Xrotation Yrotation Zrotation
		JOINT LeftUpLegRoll
		{
			OFFSET 0.000000 -0.000004 18.337898
			CHANNELS 3 Xrotation Yrotation Zrotation
			JOINT LeftLeg
			{
				OFFSET 0.000000 -0.000004 22.708405
				CHANNELS 3 Xrotation Yrotation Zrotation
				JOINT LeftLegRoll
				{
					OFFSET 0.000000 -0.000004 22.993393
					CHANNELS 3 Xrotation Yrotation Zrotation
					JOINT LeftFoot
					{
						OFFSET 0.000000 0.000000 18.752197
						CHANNELS 3 Xrotation Yrotation Zrotation
						JOINT LeftToeBase
						{
							OFFSET 0.000000 -0.000004 15.852005
							CHANNELS 3 Xrotation Yrotation Zrotation
							End Site
							{
								OFFSET -0.030113 0.884892 7.677002
							}
						}
					}
				}
			}
		}
	}
}
MOTION
Frames: 4
Frame Time: 0.041667
51.471600 -9.927855 60.314495 20.471113 3.086245 8.842937 4.249677 -0.686879 -0.278624 12.499955 -1.393578 -0.499245 14.145307 -1.399459 -0.482516 -51.533945 25.426709 4.720103 1.368356 -21.931037 -8.930749 -16.176249 -37.944699 -18.688214 -49.157930 -149.770080 -105.563927 -0.000003 0.000001 0.000003 54.993794 -18.200689 11.247414 0.000020 0.000002 -3.000017 -4.999585 -7.998798 -0.000116 -19.010553 52.021927 22.484252 101.463683 50.780848 -47.858879 -0.000006 -0.000006 -0.000006 76.435356 15.017542 -5.344911 0.000004 -0.000009 3.000008 -4.999652 7.998700 -0.000024 -91.968040 -187.773320 1.674921 179.999991 0.000004 -1.383997 78.268381 4.809467 3.270597 -0.000001 -0.000000 3.276150 94.345055 5.855327 4.845676 25.461306 -7.355615 0.002868 -90.551199 172.363854 -21.289917 0.000012 -0.000002 -2.911201 -104.809430 -1.085875 1.268872 -0.000009 0.000005 -4.144530 88.474712 -10.006692 15.547852 39.610002 7.306906 -1.118245 
51.470798 -10.007318 60.459290 20.478965 3.097802 8.863695 4.231651 -0.680876 -0.278279 12.463978 -1.381507 -0.499189 14.109221 -1.387392 -0.482606 -51.508219 25.366790 4.675178 1.367677 -21.909454 -8.932961 -16.153174 -38.040325 -18.659404 -49.141230 -149.889444 -105.256658 -0.000003 0.000002 -0.000004 54.614394 -18.435589 11.297321 0.000012 0.000003 -3.000019 -4.999586 -7.998800 -0.000115 -19.006316 52.055822 22.478924 101.640188 50.771883 -48.265412 -0.000004 -0.000009 0.000000 76.057940 15.131862 -5.434537 0.000005 -0.000007 3.000010 -4.999652 7.998700 -0.000025 -91.746782 -187.756013 1.652718 179.999991 0.000003 -1.382999 78.454012 4.787124 3.233957 0.000000 0.000001 3.275560 94.396336 5.860235 4.812865 25.461202 -7.355620 0.002835 -90.359318 172.402950 -21.196941 0.000011 -0.000004 -2.901079 -104.653026 -1.028650 1.325740 -0.000011 0.000003 -4.131241 88.466639 -9.998083 15.499670 39.651133 7.306591 -1.123229 
51.470196 -10.081215 60.596184 20.485793 3.108469 8.884197 4.213616 -0.674605 -0.277916 12.427904 -1.368897 -0.499082 14.073233 -1.374777 -0.482650 -51.482278 25.306109 4.629204 1.368523 -21.887650 -8.935609 -16.129966 -38.134876 -18.630485 -49.121512 -150.010598 -104.941396 -0.000002 0.000001 -0.000002 54.229718 -18.670554 11.343623 0.000016 0.000004 -3.000021 -4.999583 -7.998800 -0.000115 -19.002363 52.091510 22.473962 101.819570 50.762383 -48.679520 -0.000008 -0.000007 -0.000004 75.676324 15.247398 -5.522912 0.000004 -0.000007 3.000012 -4.999650 7.998700 -0.000024 -91.523545 -187.739156 1.629354 179.999991 0.000005 -1.381005 78.643051 4.764857 3.197159 -0.000000 -0.000001 3.274611 94.444912 5.865047 4.780189 25.461202 -7.355622 0.002825 -90.163995 172.442278 -21.105167 0.000011 -0.000005 -2.890908 -104.493131 -0.970657 1.385565 -0.000009 0.000002 -4.117548 88.457992 -9.989990 15.453310 39.691237 7.306296 -1.128049 
51.462105 -10.160114 60.731800 20.491305 3.118582 8.904185 4.195602 -0.668144 -0.277498 12.391921 -1.355899 -0.498862 14.037248 -1.361789 -0.482584 -51.456313 25.244750 4.582297 1.370685 -21.866133 -8.938461 -16.106512 -38.229559 -18.601394 -49.100577 -150.131806 -104.620808 -0.000004 0.000002 -0.000001 53.839267 -18.905337 11.386256 0.000015 0.000002 -3.000018 -4.999580 -7.998801 -0.000115 -18.998622 52.129192 22.469227 102.001458 50.752089 -49.100717 -0.000003 -0.000008 -0.000001 75.290767 15.364360 -5.610318 0.000005 -0.000008 3.000009 -4.999654 7.998698 -0.000024 -91.297937 -187.723241 1.604812 179.999991 0.000006 -1.379994 78.835416 4.742705 3.160210 0.000000 -0.000001 3.273311 94.490852 5.869904 4.748630 25.461205 -7.355620 0.002815 -89.965107 172.481278 -21.014489 0.000013 -0.000002 -2.880660 -104.329644 -0.911481 1.446417 -0.000010 0.000003 -4.103469 88.448908 -9.982422 15.408721 39.730036 7.306049 -1.132681 
